<svg id="Layer_3" data-name="Layer 3" xmlns="http://www.w3.org/2000/svg" viewBox="0 0 205.67 199.59"><defs><style>.cls-1{opacity:0.15;}.cls-2{fill:#fff;}</style></defs><g class="cls-1"><path class="cls-2" d="M68.67,107.56c-5.57,1.73-6.86,9.47-2.18,12.89,2.73,2,6.5,2.52,9.8,2.56a26.57,26.57,0,0,0,10-1.88A26.15,26.15,0,0,0,95,115.57c2.35-2.32,4.48-5.58,3.41-9-2-6.45-11.58-7.18-17-6.26a15.73,15.73,0,0,0-9.19,4.89c-2.09,2.39-3.81,6.07-2.28,9.17s5.45,4.46,8.65,4.75a21.42,21.42,0,0,0,10.57-2C92.18,115.67,95,113,95,109.4c0-3.44-2.93-5.68-5.92-6.68-5.51-1.82-13.11.11-15.7,5.73-1.13,2.47-1.15,5.89,1.52,7.38,3,1.65,7.49.45,10.31-1,2.51-1.29,6.22-4.65,3.64-7.64-2.11-2.44-6.28-1.78-8.82-.5a10.37,10.37,0,0,0-3.61,3.13c-.77,1,1,2,1.72,1a8.11,8.11,0,0,1,6.93-3.24c1.34.11,3,.79,2.5,2.41-.43,1.47-2.11,2.45-3.37,3.1a13,13,0,0,1-4,1.28c-1.36.21-3.25.39-4.47-.39-2.13-1.35-.89-4.63.35-6.14,3-3.64,8.45-4.69,12.77-3.09,2.57,1,4.84,3.08,3.91,6s-3.71,4.29-6.33,5.18a19.1,19.1,0,0,1-8.1,1.1c-2.52-.27-6.16-1.5-6.91-4.24s1.33-5.62,3.2-7.31a14.32,14.32,0,0,1,7.47-3.35c4.28-.65,11.63-.27,14,4.14,2.73,5-4.75,10.14-8.46,12a23.75,23.75,0,0,1-17.19,1.83c-2.57-.78-5-2.49-4.94-5.42a5.53,5.53,0,0,1,3.65-5.27c1.23-.38.7-2.31-.53-1.93Z"/><path class="cls-2" d="M64.44,117.74c.23,9.6,4.89,19.7,14.77,22.51a15,15,0,0,0,13-2.09A19.84,19.84,0,0,0,99.36,127c1.61-6.37.6-13-.39-19.39-.19-1.27-2.12-.73-1.93.53,1.4,9,2.77,20-4.41,27.09-6.56,6.48-17,3.63-21.94-3.36a25.33,25.33,0,0,1-4.25-14.09,1,1,0,0,0-2,0Z"/><path class="cls-2" d="M88.39,138.72a38.88,38.88,0,0,0-.51,34.57c.55,1.16,2.28.15,1.72-1a36.8,36.8,0,0,1,.51-32.55c.6-1.14-1.13-2.15-1.72-1Z"/><path class="cls-2" d="M88.07,159.66a15.38,15.38,0,0,1,10.51-10.48,15.11,15.11,0,0,1,1.77-.4c.31,0,.62-.08.93-.1.07,0,.47,0,.48,0l-.21-.39-.09.31a28.62,28.62,0,0,1-1.67,3.49,16.45,16.45,0,0,1-5.6,5.28,16,16,0,0,1-4,1.64c-.56.14-3.5.93-3.67.08-.26-1.26-2.19-.73-1.93.53.35,1.69,2.29,1.9,3.71,1.74a17.67,17.67,0,0,0,4.84-1.23,18.64,18.64,0,0,0,7.64-5.94,16.89,16.89,0,0,0,2.39-4.37,3.09,3.09,0,0,0,.31-2.12c-.35-1-1.29-1.06-2.17-1a16.9,16.9,0,0,0-8.93,3.43,17.13,17.13,0,0,0-6.21,9,1,1,0,0,0,1.93.53Z"/><path class="cls-2" d="M85.13,156.16a3.13,3.13,0,0,0,.65-3.1,5.27,5.27,0,0,0-2.28-2.67,30.18,30.18,0,0,0-6.62-3.2,1,1,0,0,0-1.27,1,9.85,9.85,0,0,0,2.1,6.13A5.49,5.49,0,0,0,83.27,156c1.22-.38.7-2.31-.53-1.93a2.88,2.88,0,0,1-2-.08,4.22,4.22,0,0,1-1.69-1.24,8,8,0,0,1-1.44-4.63l-1.26,1a30.57,30.57,0,0,1,5.46,2.57,5.27,5.27,0,0,1,1.89,1.58,1.5,1.5,0,0,1,.24.82.89.89,0,0,1-.23.66c-.89.93.52,2.34,1.42,1.41Z"/></g><g class="cls-1"><path class="cls-2" d="M170.14,107.56A7.43,7.43,0,0,0,168,120.45c2.73,2,6.5,2.52,9.8,2.56a26.61,26.61,0,0,0,10-1.88,26.21,26.21,0,0,0,8.63-5.56c2.36-2.32,4.48-5.58,3.42-9-2-6.45-11.59-7.18-17-6.26a15.68,15.68,0,0,0-9.18,4.89c-2.09,2.39-3.82,6.07-2.29,9.17s5.45,4.46,8.66,4.75a21.41,21.41,0,0,0,10.56-2c3.08-1.4,5.89-4.07,5.89-7.67,0-3.44-2.92-5.68-5.92-6.68-5.51-1.82-13.11.11-15.69,5.73-1.14,2.47-1.16,5.89,1.51,7.38,3,1.65,7.49.45,10.31-1,2.51-1.29,6.22-4.65,3.64-7.64-2.1-2.44-6.28-1.78-8.82-.5a10.37,10.37,0,0,0-3.61,3.13c-.77,1,1,2,1.73,1a8.09,8.09,0,0,1,6.93-3.24c1.33.11,3,.79,2.49,2.41-.43,1.47-2.11,2.45-3.37,3.1a13,13,0,0,1-4,1.28c-1.36.21-3.25.39-4.47-.39-2.13-1.35-.89-4.63.35-6.14,3-3.64,8.45-4.69,12.77-3.09,2.57,1,4.84,3.08,3.91,6s-3.71,4.29-6.33,5.18a19.1,19.1,0,0,1-8.1,1.1c-2.51-.27-6.15-1.5-6.91-4.24s1.33-5.62,3.21-7.31a14.26,14.26,0,0,1,7.46-3.35c4.28-.65,11.63-.27,14,4.14,2.74,5-4.74,10.14-8.46,12A23.75,23.75,0,0,1,172,120.18c-2.57-.78-5-2.49-4.93-5.42a5.52,5.52,0,0,1,3.65-5.27c1.22-.38.7-2.31-.54-1.93Z"/><path class="cls-2" d="M165.91,117.74c.23,9.6,4.89,19.7,14.77,22.51a15,15,0,0,0,13-2.09,19.83,19.83,0,0,0,7.15-11.2c1.61-6.37.6-13-.38-19.39-.2-1.27-2.13-.73-1.93.53,1.39,9,2.76,20-4.42,27.09-6.56,6.48-17,3.63-21.94-3.36a25.41,25.41,0,0,1-4.25-14.09,1,1,0,0,0-2,0Z"/><path class="cls-2" d="M189.86,138.72a39,39,0,0,0-.51,34.57c.56,1.16,2.28.15,1.73-1a36.77,36.77,0,0,1,.51-32.55c.59-1.14-1.13-2.15-1.73-1Z"/><path class="cls-2" d="M189.54,159.66a15.39,15.39,0,0,1,10.52-10.48,14.51,14.51,0,0,1,1.76-.4c.31,0,.62-.08.93-.1.07,0,.47,0,.48,0l-.21-.39-.09.31a27.22,27.22,0,0,1-1.67,3.49,16.36,16.36,0,0,1-5.6,5.28,15.88,15.88,0,0,1-4,1.64c-.56.14-3.49.93-3.67.08-.26-1.26-2.19-.73-1.93.53.35,1.69,2.3,1.9,3.71,1.74a17.58,17.58,0,0,0,4.84-1.23,18.64,18.64,0,0,0,7.64-5.94,17.22,17.22,0,0,0,2.4-4.37,3.14,3.14,0,0,0,.3-2.12c-.35-1-1.28-1.06-2.17-1a16.93,16.93,0,0,0-8.93,3.43,17.11,17.11,0,0,0-6.2,9,1,1,0,0,0,1.92.53Z"/><path class="cls-2" d="M186.6,156.16a3.11,3.11,0,0,0,.66-3.1,5.34,5.34,0,0,0-2.29-2.67,30.18,30.18,0,0,0-6.62-3.2,1,1,0,0,0-1.26,1,9.79,9.79,0,0,0,2.1,6.13,5.47,5.47,0,0,0,5.55,1.75c1.22-.38.7-2.31-.53-1.93a2.88,2.88,0,0,1-2-.08,4.29,4.29,0,0,1-1.69-1.24,7.88,7.88,0,0,1-1.43-4.63l-1.27,1a30.57,30.57,0,0,1,5.46,2.57,5.19,5.19,0,0,1,1.89,1.58,1.5,1.5,0,0,1,.24.82.85.85,0,0,1-.23.66c-.89.93.53,2.34,1.42,1.41Z"/></g><g class="cls-1"><path class="cls-2" d="M19,7.46A7.43,7.43,0,0,0,16.8,20.35c2.73,2,6.5,2.52,9.8,2.55a26.41,26.41,0,0,0,10-1.88,26,26,0,0,0,8.63-5.56c2.36-2.31,4.49-5.58,3.42-9C46.69,0,37.11-.73,31.67.19a15.62,15.62,0,0,0-9.19,4.89c-2.09,2.38-3.82,6.07-2.28,9.17s5.44,4.46,8.65,4.75a21.69,21.69,0,0,0,10.57-2c3.07-1.4,5.88-4.07,5.89-7.67,0-3.44-2.93-5.68-5.93-6.68C33.88.8,26.27,2.73,23.69,8.35c-1.14,2.46-1.15,5.89,1.51,7.37,3,1.66,7.49.46,10.31-1,2.51-1.29,6.22-4.65,3.65-7.64-2.11-2.44-6.28-1.78-8.82-.5a10.4,10.4,0,0,0-3.62,3.13c-.77,1,1,2,1.73,1A8.09,8.09,0,0,1,35.38,7.5c1.33.1,3,.79,2.49,2.41-.42,1.47-2.1,2.45-3.37,3.1a13,13,0,0,1-4,1.28c-1.36.2-3.24.39-4.47-.39-2.12-1.35-.88-4.63.36-6.14,3-3.64,8.44-4.7,12.76-3.1,2.57,1,4.85,3.09,3.91,6S39.37,15,36.76,15.88A19.17,19.17,0,0,1,28.65,17c-2.51-.27-6.15-1.5-6.91-4.24S23.07,7.12,25,5.43a14.33,14.33,0,0,1,7.46-3.35c4.29-.65,11.63-.27,14,4.14,2.74,5-4.74,10.14-8.46,12A23.69,23.69,0,0,1,20.8,20.08c-2.58-.79-5-2.5-4.94-5.42a5.52,5.52,0,0,1,3.65-5.27c1.22-.38.7-2.32-.53-1.93Z"/><path class="cls-2" d="M14.75,17.64c.22,9.6,4.89,19.7,14.77,22.5a15,15,0,0,0,13-2.08,19.77,19.77,0,0,0,7.15-11.21c1.61-6.36.6-13-.38-19.38-.2-1.27-2.12-.73-1.93.53,1.39,9,2.76,20-4.42,27.09-6.56,6.48-17,3.63-21.94-3.36a25.35,25.35,0,0,1-4.24-14.09,1,1,0,0,0-2,0Z"/><path class="cls-2" d="M38.69,38.62a39,39,0,0,0-.51,34.57c.56,1.16,2.28.14,1.73-1a36.8,36.8,0,0,1,.51-32.55c.59-1.14-1.13-2.16-1.73-1Z"/><path class="cls-2" d="M38.38,59.56A15.28,15.28,0,0,1,50.65,48.68c.31,0,.62-.08.93-.1.07,0,.47,0,.49,0l-.22-.4a1.68,1.68,0,0,1-.09.32A27.22,27.22,0,0,1,50.09,52a16.28,16.28,0,0,1-5.6,5.28,15.73,15.73,0,0,1-4,1.64c-.56.14-3.49.93-3.67.08-.26-1.26-2.19-.73-1.93.53.35,1.69,2.3,1.89,3.71,1.74A17.25,17.25,0,0,0,43.41,60a18.62,18.62,0,0,0,7.64-5.93,17.22,17.22,0,0,0,2.4-4.37,3.21,3.21,0,0,0,.31-2.12c-.35-1-1.29-1.06-2.18-1A17.33,17.33,0,0,0,36.45,59a1,1,0,0,0,1.93.53Z"/><path class="cls-2" d="M35.43,56.06a3.11,3.11,0,0,0,.66-3.1,5.24,5.24,0,0,0-2.29-2.67,30,30,0,0,0-6.62-3.2,1,1,0,0,0-1.26,1A9.81,9.81,0,0,0,28,54.18a5.47,5.47,0,0,0,5.55,1.75c1.23-.38.7-2.31-.53-1.93a2.91,2.91,0,0,1-2-.08,4.18,4.18,0,0,1-1.7-1.25,7.85,7.85,0,0,1-1.43-4.62l-1.27,1a30.28,30.28,0,0,1,5.46,2.58A5.11,5.11,0,0,1,34,53.17a1.6,1.6,0,0,1,.25.82,1,1,0,0,1-.23.66c-.89.93.52,2.34,1.41,1.41Z"/></g><g class="cls-1"><path class="cls-2" d="M120.45,7.46a7.43,7.43,0,0,0-2.18,12.89c2.73,2,6.5,2.52,9.8,2.55A26.41,26.41,0,0,0,138.12,21a25.85,25.85,0,0,0,8.63-5.56c2.36-2.31,4.49-5.58,3.42-9-2-6.45-11.58-7.18-17-6.26A15.65,15.65,0,0,0,124,5.08c-2.09,2.38-3.81,6.07-2.28,9.17s5.45,4.46,8.65,4.75a21.67,21.67,0,0,0,10.57-2c3.07-1.4,5.88-4.07,5.89-7.67,0-3.44-2.93-5.68-5.93-6.68-5.5-1.82-13.1.11-15.69,5.73-1.13,2.46-1.15,5.89,1.52,7.37,3,1.66,7.49.46,10.3-1,2.51-1.29,6.22-4.65,3.65-7.64-2.11-2.44-6.28-1.78-8.82-.5a10.37,10.37,0,0,0-3.61,3.13c-.77,1,1,2,1.72,1a8.1,8.1,0,0,1,6.93-3.24c1.33.1,3,.79,2.5,2.41-.43,1.47-2.11,2.45-3.38,3.1a12.91,12.91,0,0,1-4,1.28c-1.37.2-3.25.39-4.47-.39-2.13-1.35-.89-4.63.35-6.14,3-3.64,8.45-4.7,12.77-3.1,2.57,1,4.84,3.09,3.91,6s-3.72,4.29-6.33,5.18a19.15,19.15,0,0,1-8.11,1.1c-2.51-.27-6.15-1.5-6.9-4.24s1.32-5.62,3.2-7.31a14.32,14.32,0,0,1,7.47-3.35c4.28-.65,11.63-.27,14,4.14,2.74,5-4.74,10.14-8.45,12a23.71,23.71,0,0,1-17.19,1.84c-2.57-.79-5-2.5-4.94-5.42A5.52,5.52,0,0,1,121,9.39c1.23-.38.7-2.32-.53-1.93Z"/><path class="cls-2" d="M116.22,17.64c.22,9.6,4.89,19.7,14.77,22.5a15,15,0,0,0,13-2.08,19.77,19.77,0,0,0,7.15-11.21c1.62-6.36.6-13-.38-19.38-.19-1.27-2.12-.73-1.93.53,1.4,9,2.77,20-4.41,27.09-6.56,6.48-17,3.63-21.94-3.36a25.36,25.36,0,0,1-4.25-14.09,1,1,0,0,0-2,0Z"/><path class="cls-2" d="M140.17,38.62a38.91,38.91,0,0,0-.52,34.57c.56,1.16,2.29.14,1.73-1a36.8,36.8,0,0,1,.51-32.55c.6-1.14-1.13-2.16-1.72-1Z"/><path class="cls-2" d="M139.85,59.56a15.28,15.28,0,0,1,12.27-10.88c.31,0,.62-.08.94-.1.07,0,.46,0,.48,0l-.22-.4a1.68,1.68,0,0,1-.09.32A27.22,27.22,0,0,1,151.56,52a16.28,16.28,0,0,1-5.6,5.28,15.73,15.73,0,0,1-4,1.64c-.55.14-3.49.93-3.66.08-.27-1.26-2.19-.73-1.93.53.35,1.69,2.29,1.89,3.71,1.74A17.18,17.18,0,0,0,144.88,60a18.49,18.49,0,0,0,7.64-5.93,17.22,17.22,0,0,0,2.4-4.37,3.15,3.15,0,0,0,.31-2.12c-.35-1-1.29-1.06-2.17-1A16.9,16.9,0,0,0,144.13,50a17.09,17.09,0,0,0-6.21,9,1,1,0,0,0,1.93.53Z"/><path class="cls-2" d="M136.9,56.06a3.11,3.11,0,0,0,.66-3.1,5.27,5.27,0,0,0-2.28-2.67,30.18,30.18,0,0,0-6.62-3.2,1,1,0,0,0-1.27,1,9.87,9.87,0,0,0,2.1,6.13,5.49,5.49,0,0,0,5.56,1.75c1.22-.38.7-2.31-.54-1.93a2.91,2.91,0,0,1-2-.08,4.15,4.15,0,0,1-1.69-1.25,7.86,7.86,0,0,1-1.44-4.62l-1.26,1a30.94,30.94,0,0,1,5.46,2.58,5.27,5.27,0,0,1,1.89,1.58,1.5,1.5,0,0,1,.24.82.9.9,0,0,1-.23.66c-.89.93.52,2.34,1.41,1.41Z"/></g></svg>