<svg xmlns="http://www.w3.org/2000/svg" viewBox="0 0 205.5 199.5"><defs><style>.cls-1{fill:#cb870d;}.cls-2{fill:none;}</style></defs><g id="Layer_2" data-name="Layer 2"><g id="Layer_3" data-name="Layer 3"><path class="cls-1" d="M68.45,107.7a7.31,7.31,0,0,0-2.15,12.67c2.71,2,6.46,2.5,9.74,2.53a26.36,26.36,0,0,0,10-1.87,25.81,25.81,0,0,0,8.58-5.53C97,113.22,99.07,110,98,106.61c-2-6.38-11.51-7.08-16.88-6.18A15.53,15.53,0,0,0,72,105.29c-2,2.33-3.78,6-2.26,9s5.37,4.4,8.55,4.68a21.27,21.27,0,0,0,10.5-2c3-1.38,5.82-4,5.83-7.56,0-3.38-2.89-5.58-5.83-6.56-5.46-1.8-13,.1-15.56,5.67-1.1,2.41-1.13,5.76,1.47,7.21,3,1.63,7.41.44,10.19-1,2.43-1.24,6.12-4.52,3.62-7.44-2.07-2.4-6.19-1.73-8.67-.48a10.21,10.21,0,0,0-3.57,3.09c-.68.9.84,1.78,1.51.88a8.22,8.22,0,0,1,7-3.3c1.38.11,3.14.87,2.61,2.57-.47,1.5-2.11,2.49-3.43,3.17a13.38,13.38,0,0,1-4,1.29c-1.4.21-3.32.39-4.57-.4-2.21-1.4-1-4.76.33-6.34,3-3.66,8.52-4.74,12.88-3.12,2.64,1,5,3.16,4,6.19-.9,2.86-3.76,4.36-6.41,5.26a19,19,0,0,1-8.14,1.1c-2.57-.27-6.26-1.53-7-4.33s1.33-5.7,3.24-7.43a14.39,14.39,0,0,1,7.52-3.37c4.34-.67,11.74-.27,14.17,4.19,2.78,5.12-4.72,10.27-8.51,12.19a23.85,23.85,0,0,1-17.28,1.85c-2.62-.8-5-2.56-5-5.54a5.65,5.65,0,0,1,3.73-5.39c1.08-.33.62-2-.46-1.69Z"/><path class="cls-1" d="M64.31,117.76c.22,9.55,4.85,19.6,14.68,22.39a14.87,14.87,0,0,0,12.89-2.08A19.68,19.68,0,0,0,99,126.94c1.61-6.34.6-13-.38-19.32-.17-1.11-1.86-.64-1.69.47,1.4,9.08,2.77,20.07-4.45,27.21-6.62,6.54-17.15,3.67-22.13-3.39a25.47,25.47,0,0,1-4.27-14.15.88.88,0,0,0-1.75,0Z"/><path class="cls-1" d="M88.24,138.8a38.79,38.79,0,0,0-.51,34.45c.48,1,2,.13,1.51-.89a36.93,36.93,0,0,1,.51-32.67c.52-1-1-1.89-1.51-.89Z"/><path class="cls-1" d="M87.7,159.65a15.48,15.48,0,0,1,10.59-10.57,13.3,13.3,0,0,1,1.77-.39c.32-.05.64-.09,1-.11a2.42,2.42,0,0,0,.48,0l-.09-.24-.09.32a22.62,22.62,0,0,1-1.68,3.51A16.57,16.57,0,0,1,94,157.47a15.61,15.61,0,0,1-4.06,1.65c-.63.16-3.61,1-3.82,0s-1.92-.63-1.69.47c.34,1.63,2.23,1.8,3.59,1.65A17.37,17.37,0,0,0,92.82,160a18.34,18.34,0,0,0,7.56-5.88,17,17,0,0,0,2.39-4.34,3.09,3.09,0,0,0,.31-2.06c-.34-.89-1.23-1-2.06-.9a17.24,17.24,0,0,0-15,12.37.88.88,0,0,0,1.7.46Z"/><path class="cls-1" d="M84.78,156.1a3,3,0,0,0,.63-3,5.09,5.09,0,0,0-2.23-2.59,29.93,29.93,0,0,0-6.59-3.19.88.88,0,0,0-1.11.84,9.68,9.68,0,0,0,2.06,6A5.36,5.36,0,0,0,83,155.93c1.07-.33.61-2-.47-1.69a3.64,3.64,0,0,1-3.8-1.36,8,8,0,0,1-1.48-4.71l-1.11.85a29.93,29.93,0,0,1,5.49,2.59,5.35,5.35,0,0,1,1.94,1.62,1.38,1.38,0,0,1,0,1.63c-.78.81.46,2,1.24,1.24Z"/><path class="cls-1" d="M169.92,107.7a7.31,7.31,0,0,0-2.15,12.67c2.71,2,6.46,2.5,9.74,2.53a26.45,26.45,0,0,0,10-1.87,26,26,0,0,0,8.58-5.53c2.32-2.28,4.44-5.51,3.38-8.89-2-6.38-11.5-7.08-16.88-6.18a15.54,15.54,0,0,0-9.13,4.86c-2,2.33-3.78,6-2.27,9s5.38,4.4,8.55,4.68a21.33,21.33,0,0,0,10.51-2c3-1.38,5.82-4,5.82-7.56,0-3.38-2.88-5.58-5.83-6.56-5.45-1.8-13,.1-15.55,5.67-1.11,2.41-1.14,5.76,1.47,7.21,2.94,1.63,7.4.44,10.18-1,2.43-1.24,6.12-4.52,3.62-7.44-2.06-2.4-6.18-1.73-8.67-.48a10.21,10.21,0,0,0-3.57,3.09c-.67.9.85,1.78,1.51.88a8.23,8.23,0,0,1,7-3.3c1.39.11,3.14.87,2.61,2.57-.47,1.5-2.11,2.49-3.42,3.17a13.54,13.54,0,0,1-4,1.29c-1.4.21-3.31.39-4.57-.4-2.2-1.4-1-4.76.33-6.34,3-3.66,8.53-4.74,12.89-3.12,2.63,1,4.95,3.16,4,6.19-.9,2.86-3.75,4.36-6.41,5.26a19,19,0,0,1-8.14,1.1c-2.57-.27-6.25-1.53-7-4.33s1.32-5.7,3.23-7.43a14.43,14.43,0,0,1,7.52-3.37c4.35-.67,11.74-.27,14.17,4.19,2.78,5.12-4.72,10.27-8.5,12.19a23.85,23.85,0,0,1-17.28,1.85c-2.63-.8-5.06-2.56-5-5.54a5.64,5.64,0,0,1,3.74-5.39c1.07-.33.61-2-.47-1.69Z"/><path class="cls-1" d="M165.78,117.76c.23,9.55,4.85,19.6,14.68,22.39a14.89,14.89,0,0,0,12.9-2.08,19.62,19.62,0,0,0,7.09-11.13c1.61-6.34.6-13-.38-19.32-.17-1.11-1.86-.64-1.69.47,1.4,9.08,2.77,20.07-4.45,27.21-6.62,6.54-17.15,3.67-22.13-3.39a25.47,25.47,0,0,1-4.27-14.15.88.88,0,0,0-1.75,0Z"/><path class="cls-1" d="M189.71,138.8a38.82,38.82,0,0,0-.51,34.45c.49,1,2,.13,1.51-.89a36.93,36.93,0,0,1,.52-32.67c.51-1-1-1.89-1.52-.89Z"/><path class="cls-1" d="M189.17,159.65a15.48,15.48,0,0,1,10.6-10.57,13.16,13.16,0,0,1,1.76-.39c.32-.05.64-.09,1-.11a2.53,2.53,0,0,0,.48,0l-.1-.24a1.92,1.92,0,0,1-.09.32,21.74,21.74,0,0,1-1.68,3.51,16.54,16.54,0,0,1-5.64,5.33,15.89,15.89,0,0,1-4.06,1.65c-.64.16-3.62,1-3.83,0s-1.91-.63-1.69.47c.34,1.63,2.24,1.8,3.6,1.65a17.39,17.39,0,0,0,4.8-1.23,18.44,18.44,0,0,0,7.57-5.88,17,17,0,0,0,2.38-4.34,3,3,0,0,0,.31-2.06c-.34-.89-1.23-1-2.05-.9a17.21,17.21,0,0,0-15,12.37.88.88,0,0,0,1.69.46Z"/><path class="cls-1" d="M186.25,156.1a3,3,0,0,0,.63-3,5.09,5.09,0,0,0-2.23-2.59,29.93,29.93,0,0,0-6.59-3.19.88.88,0,0,0-1.11.84,9.69,9.69,0,0,0,2.07,6,5.34,5.34,0,0,0,5.43,1.72c1.07-.33.62-2-.47-1.69a3.65,3.65,0,0,1-3.8-1.36,7.88,7.88,0,0,1-1.47-4.71l-1.11.85a30.24,30.24,0,0,1,5.49,2.59,5.32,5.32,0,0,1,1.93,1.62,1.38,1.38,0,0,1,0,1.63c-.78.81.46,2,1.24,1.24Z"/><path class="cls-1" d="M18.75,7.6C13.29,9.29,12,16.9,16.61,20.26c2.71,2,6.45,2.51,9.73,2.54a26.45,26.45,0,0,0,10-1.87,26.23,26.23,0,0,0,8.58-5.53c2.32-2.28,4.44-5.51,3.38-8.9C46.34.13,36.82-.58,31.44.33a15.54,15.54,0,0,0-9.13,4.86c-2,2.33-3.78,6-2.26,9s5.37,4.4,8.54,4.68a21.31,21.31,0,0,0,10.51-2c3-1.38,5.82-4,5.83-7.56,0-3.38-2.89-5.58-5.84-6.56-5.45-1.81-13,.1-15.55,5.67-1.1,2.41-1.14,5.76,1.47,7.21,2.94,1.63,7.41.44,10.18-1,2.44-1.25,6.13-4.52,3.62-7.44-2.06-2.41-6.18-1.73-8.67-.48a10.21,10.21,0,0,0-3.57,3.09c-.67.9.85,1.78,1.52.88a8.18,8.18,0,0,1,7-3.3c1.39.1,3.15.86,2.62,2.56-.48,1.51-2.12,2.5-3.43,3.18a13.44,13.44,0,0,1-4,1.29c-1.4.21-3.31.39-4.56-.4-2.21-1.4-1-4.76.32-6.34C29.08,4,34.59,3,39,4.57c2.63,1,4.95,3.16,4,6.18C42,13.62,39.19,15.11,36.53,16a19.13,19.13,0,0,1-8.14,1.1c-2.56-.27-6.25-1.53-7-4.33s1.32-5.7,3.24-7.43A14.38,14.38,0,0,1,32.12,2c4.35-.66,11.74-.27,14.17,4.2,2.79,5.12-4.72,10.27-8.5,12.19a23.8,23.8,0,0,1-17.28,1.84c-2.63-.79-5.06-2.55-5-5.53a5.66,5.66,0,0,1,3.74-5.39c1.07-.34.61-2-.47-1.69Z"/><path class="cls-1" d="M14.61,17.66c.23,9.55,4.86,19.6,14.68,22.39A14.92,14.92,0,0,0,42.19,38a19.68,19.68,0,0,0,7.1-11.13c1.6-6.34.59-13-.39-19.32C48.73,6.41,47,6.88,47.21,8c1.4,9.08,2.77,20.07-4.45,27.2-6.62,6.55-17.15,3.68-22.13-3.38a25.38,25.38,0,0,1-4.26-14.15.88.88,0,0,0-1.76,0Z"/><path class="cls-1" d="M38.54,38.7A38.82,38.82,0,0,0,38,73.15c.49,1,2,.12,1.51-.89a36.93,36.93,0,0,1,.52-32.67c.52-1-1-1.89-1.52-.89Z"/><path class="cls-1" d="M38,59.55a15.54,15.54,0,0,1,12.36-11c.32,0,.64-.08,1-.1a2.53,2.53,0,0,0,.48,0l-.1-.24a1.81,1.81,0,0,1-.09.31A21,21,0,0,1,49.94,52a16.45,16.45,0,0,1-5.64,5.33A16.26,16.26,0,0,1,40.24,59c-.64.16-3.62,1-3.82,0s-1.92-.64-1.69.47c.33,1.63,2.23,1.8,3.59,1.65a17.31,17.31,0,0,0,4.8-1.23A18.61,18.61,0,0,0,50.69,54a17.14,17.14,0,0,0,2.38-4.34,3,3,0,0,0,.31-2.06c-.33-.9-1.23-1-2.05-.9a16.78,16.78,0,0,0-8.87,3.42,17,17,0,0,0-6.15,8.94.88.88,0,0,0,1.69.47Z"/><path class="cls-1" d="M35.09,56a3,3,0,0,0,.62-3,5.09,5.09,0,0,0-2.23-2.59,29.64,29.64,0,0,0-6.58-3.19.87.87,0,0,0-1.11.84,9.64,9.64,0,0,0,2.06,6,5.35,5.35,0,0,0,5.43,1.72c1.08-.33.62-2-.46-1.69A3.68,3.68,0,0,1,29,52.78a8,8,0,0,1-1.47-4.71l-1.11.85a29.59,29.59,0,0,1,5.49,2.59,5.06,5.06,0,0,1,1.93,1.62,1.35,1.35,0,0,1,0,1.62c-.78.82.45,2.06,1.24,1.24Z"/><path class="cls-1" d="M120.23,7.6a7.3,7.3,0,0,0-2.15,12.66c2.71,2,6.46,2.51,9.73,2.54a26.41,26.41,0,0,0,10-1.87,26.13,26.13,0,0,0,8.58-5.53c2.33-2.28,4.44-5.51,3.39-8.9-2-6.37-11.51-7.08-16.88-6.17a15.53,15.53,0,0,0-9.14,4.86c-2,2.33-3.78,6-2.26,9s5.37,4.4,8.55,4.68a21.29,21.29,0,0,0,10.5-2c3-1.38,5.82-4,5.83-7.56,0-3.38-2.89-5.58-5.83-6.56-5.46-1.81-13,.1-15.56,5.67-1.1,2.41-1.13,5.76,1.47,7.21,2.94,1.63,7.41.44,10.19-1,2.43-1.25,6.12-4.52,3.62-7.44-2.07-2.41-6.19-1.73-8.67-.48a10,10,0,0,0-3.57,3.09c-.68.9.84,1.78,1.51.88a8.18,8.18,0,0,1,7-3.3c1.39.1,3.15.86,2.62,2.56-.47,1.51-2.11,2.5-3.43,3.18a13.44,13.44,0,0,1-4,1.29c-1.39.21-3.31.39-4.56-.4-2.21-1.4-1-4.76.33-6.34,3-3.67,8.52-4.74,12.88-3.12,2.63,1,5,3.16,4,6.18-.9,2.87-3.76,4.36-6.41,5.27a19.15,19.15,0,0,1-8.14,1.1c-2.57-.27-6.26-1.53-7-4.33s1.33-5.7,3.24-7.43A14.41,14.41,0,0,1,133.6,2c4.34-.66,11.73-.27,14.16,4.2,2.79,5.12-4.71,10.27-8.5,12.19A23.79,23.79,0,0,1,122,20.21c-2.62-.79-5-2.55-5-5.53a5.66,5.66,0,0,1,3.74-5.39c1.08-.34.62-2-.46-1.69Z"/><path class="cls-1" d="M116.09,17.66c.22,9.55,4.85,19.6,14.68,22.39A14.91,14.91,0,0,0,143.66,38a19.68,19.68,0,0,0,7.1-11.13c1.61-6.34.6-13-.38-19.32-.17-1.11-1.86-.64-1.69.47,1.4,9.08,2.76,20.07-4.45,27.2-6.62,6.55-17.16,3.68-22.14-3.38a25.54,25.54,0,0,1-4.26-14.15.88.88,0,0,0-1.75,0Z"/><path class="cls-1" d="M140,38.7a38.79,38.79,0,0,0-.52,34.45c.49,1,2,.12,1.52-.89a36.89,36.89,0,0,1,.51-32.67c.52-1-1-1.89-1.51-.89Z"/><path class="cls-1" d="M139.47,59.55a15.54,15.54,0,0,1,12.36-11c.32,0,.65-.08,1-.1a2.42,2.42,0,0,0,.48,0l-.09-.24-.09.31A21.89,21.89,0,0,1,151.41,52a16.45,16.45,0,0,1-5.64,5.33A16,16,0,0,1,141.71,59c-.63.16-3.62,1-3.82,0s-1.92-.64-1.69.47c.34,1.63,2.23,1.8,3.59,1.65a17.22,17.22,0,0,0,4.8-1.23A18.54,18.54,0,0,0,152.16,54a17.49,17.49,0,0,0,2.39-4.34,3,3,0,0,0,.3-2.06c-.33-.9-1.22-1-2-.9a16.75,16.75,0,0,0-8.86,3.42,17,17,0,0,0-6.16,8.94.88.88,0,0,0,1.69.47Z"/><path class="cls-1" d="M136.56,56a3,3,0,0,0,.63-3A5.18,5.18,0,0,0,135,50.42a29.93,29.93,0,0,0-6.59-3.19.88.88,0,0,0-1.11.84,9.64,9.64,0,0,0,2.06,6,5.36,5.36,0,0,0,5.44,1.72c1.07-.33.61-2-.47-1.69a3.68,3.68,0,0,1-3.81-1.36A8,8,0,0,1,129,48.07l-1.11.85a29.59,29.59,0,0,1,5.49,2.59,5.16,5.16,0,0,1,1.94,1.62,1.36,1.36,0,0,1,0,1.62c-.78.82.46,2.06,1.24,1.24Z"/><rect class="cls-2" width="205.5" height="199.5"/></g></g></svg>